<svg id="Layer_1" data-name="Layer 1" xmlns="http://www.w3.org/2000/svg" viewBox="0 0 565.04 761.93"><defs><style>.cls-1{fill:none;}.cls-2{fill:#fff;}</style></defs><title>mainillustration</title><polygon class="cls-1" points="561.23 478.82 242.03 324.93 24.63 452.52 343.83 606.42 561.23 478.82"/><path d="M750.9,724.9a2.93,2.93,0,0,1-1.6-.4L430,570.7a3.49,3.49,0,0,1-2.1-3.2,3.7,3.7,0,0,1,1.9-3.4L647.2,436.5a3.63,3.63,0,0,1,3.5-.1L970,590.2a3.49,3.49,0,0,1,2.1,3.2,3.7,3.7,0,0,1-1.9,3.4L752.8,724.4A3.39,3.39,0,0,1,750.9,724.9ZM439.7,567,750.8,716.9l209.6-123L649.3,444Z" transform="translate(-407.07 -114.77)"/><path class="cls-1" d="M750.9,721.2,431.7,567.3s-39,34.1,0,74.3L750.9,795.5C711.9,755.3,750.9,721.2,750.9,721.2Z" transform="translate(-407.07 -114.77)"/><path d="M750.9,799.3a2.93,2.93,0,0,1-1.6-.4L430,645a4.44,4.44,0,0,1-1.1-.8c-12.8-13.2-19-27.2-18.4-41.7.9-22.4,17.9-37.5,18.6-38.1a3.85,3.85,0,0,1,4.1-.6L752.4,717.7a3.79,3.79,0,0,1,2.1,2.9,3.73,3.73,0,0,1-1.2,3.3c-.2.1-15.3,13.6-16,32.8-.5,12.3,5,24.4,16.3,36.1a3.65,3.65,0,0,1,.3,4.8A3.52,3.52,0,0,1,750.9,799.3Zm-317-160.7L737.8,785c-5.7-9.3-8.4-18.8-8-28.6.7-16,9.5-28.2,14.7-34.1L432.4,571.9c-4,4.2-13.7,15.9-14.3,31.1C417.6,615.1,423,627.1,433.9,638.6Z" transform="translate(-407.07 -114.77)"/><path d="M750.9,799.3a3.78,3.78,0,0,1-1.9-7L966.4,664.7a3.63,3.63,0,0,1,5.1,1.3,3.72,3.72,0,0,1-1.3,5.1L752.8,798.8A4.49,4.49,0,0,1,750.9,799.3Z" transform="translate(-407.07 -114.77)"/><path class="cls-2" d="M968.3,667.9,750.9,795.5c-39-40.3,0-74.3,0-74.3L968.3,593.6" transform="translate(-407.07 -114.77)"/><path d="M750.9,799.3a3.86,3.86,0,0,1-2.7-1.1c-12.8-13.2-19-27.2-18.4-41.7.9-22.4,17.9-37.5,18.6-38.1l218-128a3.72,3.72,0,0,1,3.8,6.4L752.8,724.4h0c.1,0-14.7,13.4-15.5,32.4-.5,11.5,4.3,23,14.2,33.9L966.3,664.6a3.63,3.63,0,0,1,5.1,1.3,3.72,3.72,0,0,1-1.3,5.1L752.8,798.8A4.49,4.49,0,0,1,750.9,799.3Z" transform="translate(-407.07 -114.77)"/><polygon class="cls-1" points="561.23 375.23 242.03 221.32 24.63 349.02 343.83 502.82 561.23 375.23"/><path d="M750.9,621.4a2.93,2.93,0,0,1-1.6-.4L430,467.1a3.49,3.49,0,0,1-2.1-3.2,3.7,3.7,0,0,1,1.9-3.4L647.2,332.9a3.63,3.63,0,0,1,3.5-.1L970,486.6a3.49,3.49,0,0,1,2.1,3.2,3.7,3.7,0,0,1-1.9,3.4L752.8,620.9A4.49,4.49,0,0,1,750.9,621.4Zm-311.2-158L750.8,613.3l209.6-123L649.3,340.4Z" transform="translate(-407.07 -114.77)"/><path class="cls-1" d="M750.9,617.6,431.7,463.8s-39,34.1,0,74.3L750.9,692C711.9,651.7,750.9,617.6,750.9,617.6Z" transform="translate(-407.07 -114.77)"/><path d="M750.9,695.7a2.93,2.93,0,0,1-1.6-.4L430,541.5a4.44,4.44,0,0,1-1.1-.8c-12.8-13.2-19-27.2-18.4-41.7.9-22.4,17.9-37.5,18.6-38.1a3.85,3.85,0,0,1,4.1-.6L752.4,614.2a3.79,3.79,0,0,1,2.1,2.9,3.64,3.64,0,0,1-1.2,3.3c-.2.1-15.3,13.6-16,32.8-.5,12.3,5,24.4,16.3,36.1a3.65,3.65,0,0,1,.3,4.8A3.42,3.42,0,0,1,750.9,695.7ZM433.9,535,737.8,681.5c-5.7-9.3-8.4-18.8-8-28.6.7-16,9.5-28.2,14.7-34.2L432.4,468.3c-4,4.2-13.7,15.9-14.3,31.1C417.6,511.5,422.9,523.5,433.9,535Z" transform="translate(-407.07 -114.77)"/><path d="M750.9,695.7a3.78,3.78,0,0,1-1.9-7L966.4,561.1a3.63,3.63,0,0,1,5.1,1.3,3.72,3.72,0,0,1-1.3,5.1L752.8,695.2A4.49,4.49,0,0,1,750.9,695.7Z" transform="translate(-407.07 -114.77)"/><path class="cls-2" d="M968.3,564.3,750.9,691.9c-39-40.3,0-74.3,0-74.3L968.3,490" transform="translate(-407.07 -114.77)"/><path d="M750.9,695.7a3.86,3.86,0,0,1-2.7-1.1c-12.8-13.2-19-27.2-18.4-41.7.9-22.4,17.9-37.5,18.6-38.1l218-128a3.63,3.63,0,0,1,5.1,1.3,3.72,3.72,0,0,1-1.3,5.1L752.8,620.9h0c.1,0-14.7,13.4-15.5,32.4-.5,11.5,4.3,23,14.2,33.9L966.3,561.1a3.63,3.63,0,0,1,5.1,1.3,3.72,3.72,0,0,1-1.3,5.1L752.8,695.2A4.49,4.49,0,0,1,750.9,695.7Z" transform="translate(-407.07 -114.77)"/><polygon class="cls-1" points="561.23 271.63 242.03 117.83 24.63 245.43 343.83 399.23 561.23 271.63"/><path d="M750.9,517.8a2.93,2.93,0,0,1-1.6-.4L430,363.6a3.49,3.49,0,0,1-2.1-3.2,3.7,3.7,0,0,1,1.9-3.4L647.2,229.4a3.63,3.63,0,0,1,3.5-.1L970,383a3.49,3.49,0,0,1,2.1,3.2,3.7,3.7,0,0,1-1.9,3.4L752.8,517.3A4.49,4.49,0,0,1,750.9,517.8ZM439.7,359.9,750.8,509.8l209.6-123-311.1-150Z" transform="translate(-407.07 -114.77)"/><path class="cls-1" d="M750.9,514,431.7,360.2s-39,34.1,0,74.3L750.9,588.4C711.9,548.1,750.9,514,750.9,514Z" transform="translate(-407.07 -114.77)"/><path d="M750.9,592.1a2.93,2.93,0,0,1-1.6-.4L430,437.9a4.44,4.44,0,0,1-1.1-.8c-12.8-13.2-19-27.2-18.4-41.7.9-22.4,17.9-37.5,18.6-38.1a3.85,3.85,0,0,1,4.1-.6L752.4,510.6a3.79,3.79,0,0,1,2.1,2.9,3.73,3.73,0,0,1-1.2,3.3c-.2.1-15.3,13.6-16,32.8-.5,12.3,5,24.4,16.3,36.1a3.65,3.65,0,0,1,.3,4.8A3.42,3.42,0,0,1,750.9,592.1Zm-317-160.7L737.8,577.9c-5.7-9.3-8.4-18.8-8-28.6.7-16,9.5-28.2,14.7-34.2L432.4,364.7c-4,4.2-13.7,15.9-14.3,31.1C417.6,408,422.9,419.9,433.9,431.4Z" transform="translate(-407.07 -114.77)"/><path d="M750.9,592.1a3.78,3.78,0,0,1-1.9-7L966.4,457.5a3.72,3.72,0,0,1,3.8,6.4L752.8,591.6A3.39,3.39,0,0,1,750.9,592.1Z" transform="translate(-407.07 -114.77)"/><path class="cls-2" d="M968.3,460.8,750.9,588.4c-39-40.3,0-74.3,0-74.3L968.3,386.5" transform="translate(-407.07 -114.77)"/><path d="M750.9,592.1a3.86,3.86,0,0,1-2.7-1.1c-12.8-13.2-19-27.2-18.4-41.7.9-22.4,17.9-37.5,18.6-38.1l218-128a3.63,3.63,0,0,1,5.1,1.3,3.72,3.72,0,0,1-1.3,5.1L752.8,517.3h0c.1,0-14.7,13.4-15.5,32.4-.5,11.5,4.3,23,14.2,33.9L966.3,457.5a3.72,3.72,0,0,1,3.8,6.4L752.8,591.6A3.39,3.39,0,0,1,750.9,592.1Z" transform="translate(-407.07 -114.77)"/><path d="M968.3,876.7a4.49,4.49,0,0,1-1.9-.5l-98.3-56.7a3.74,3.74,0,0,1-1.9-3.3,3.86,3.86,0,0,1,1.9-3.3l98.3-56.8a3.7,3.7,0,0,1,3.8,0,3.74,3.74,0,0,1,1.9,3.3V873a3.86,3.86,0,0,1-1.9,3.3A4.06,4.06,0,0,1,968.3,876.7Zm-90.8-60.5,87,50.2V766Z" transform="translate(-407.07 -114.77)"/><path d="M414.3,235.9a4.49,4.49,0,0,1-1.9-.5,3.74,3.74,0,0,1-1.9-3.3V118.6a3.86,3.86,0,0,1,1.9-3.3,3.7,3.7,0,0,1,3.8,0L514.5,172a3.82,3.82,0,0,1,0,6.6l-98.3,56.8A4.14,4.14,0,0,1,414.3,235.9Zm3.8-110.8V225.6l87-50.2Z" transform="translate(-407.07 -114.77)"/><path d="M622.9,784.7H478.8a3.8,3.8,0,1,1,0-7.6H622.9a3.8,3.8,0,1,1,0,7.6Z" transform="translate(-407.07 -114.77)"/><path d="M700,828.3H478.8a3.8,3.8,0,0,1,0-7.6H700a3.8,3.8,0,0,1,3.8,3.8A3.74,3.74,0,0,1,700,828.3Z" transform="translate(-407.07 -114.77)"/><path d="M750.9,874.2H478.8a3.8,3.8,0,1,1,0-7.6H750.9a3.8,3.8,0,1,1,0,7.6Z" transform="translate(-407.07 -114.77)"/><path d="M410.8,280a3.78,3.78,0,0,1-1.9-7L580.7,172.2a3.63,3.63,0,0,1,5.1,1.3,3.72,3.72,0,0,1-1.3,5.1L412.7,279.4A3.29,3.29,0,0,1,410.8,280Z" transform="translate(-407.07 -114.77)"/><path d="M414.3,324.8a3.78,3.78,0,0,1-1.9-7L521.1,254a3.72,3.72,0,0,1,3.8,6.4L416.2,324.2A3.29,3.29,0,0,1,414.3,324.8Z" transform="translate(-407.07 -114.77)"/><path d="M833.8,795.1a3.78,3.78,0,0,1-1.9-7l134-78.6a3.72,3.72,0,0,1,3.8,6.4l-134,78.6A3.29,3.29,0,0,1,833.8,795.1Z" transform="translate(-407.07 -114.77)"/><path d="M816.6,204.27H960.7a3.8,3.8,0,0,1,0,7.6H816.6a3.8,3.8,0,0,1,0-7.6Z" transform="translate(-407.07 -114.77)"/><path d="M739.5,160.68H960.7a3.8,3.8,0,1,1,0,7.59H739.5a3.8,3.8,0,0,1-3.8-3.79A3.73,3.73,0,0,1,739.5,160.68Z" transform="translate(-407.07 -114.77)"/><path d="M688.6,114.77H960.7a3.8,3.8,0,0,1,0,7.6H688.6a3.8,3.8,0,0,1,0-7.6Z" transform="translate(-407.07 -114.77)"/><path d="M868.66,247.88H962c1.36,0,2.46,1.7,2.46,3.8s-1.1,3.8-2.46,3.8H868.66c-1.36,0-2.46-1.7-2.46-3.8S867.3,247.88,868.66,247.88Z" transform="translate(-407.07 -114.77)"/><path d="M905,291.48h54.48c.8,0,1.44,1.7,1.44,3.8s-.64,3.8-1.44,3.8H905c-.8,0-1.44-1.7-1.44-3.8S904.15,291.48,905,291.48Z" transform="translate(-407.07 -114.77)"/></svg>